<svg width="98" height="26" viewBox="0 0 98 26" fill="none" xmlns="http://www.w3.org/2000/svg">
<path d="M12.5391 14.6719V17.3203H5.60156V21.1172H13.4531V24H2.34375V8.29688H13.4531V11.1094H5.60156V14.6719H12.5391ZM22.1297 8.29688V21.0703H29.9813V24H18.8719V8.29688H22.1297ZM43.4391 21.0703V24H34.8844V21.0703H37.5328V11.2266H34.8844V8.29688H43.4391V11.2266H40.7906V21.0703H43.4391ZM53.4984 7.99219C54.4047 7.99219 55.2328 8.11719 55.9828 8.36719C56.7328 8.61719 57.3656 8.90625 57.8812 9.23438V12.4453C57.3187 12.1016 56.7172 11.7812 56.0766 11.4844C55.4359 11.1875 54.7094 11.0391 53.8969 11.0391C53.4906 11.0391 53.0844 11.1016 52.6781 11.2266C52.2875 11.3516 51.9594 11.5391 51.6937 11.7891C51.4437 12.0391 51.3187 12.3594 51.3187 12.75C51.3187 13.2656 51.5453 13.6562 51.9984 13.9219C52.4516 14.1875 53.0062 14.4531 53.6625 14.7188L55.5844 15.5156C56.6781 15.9844 57.4828 16.5547 57.9984 17.2266C58.5141 17.8984 58.7719 18.6641 58.7719 19.5234C58.7719 20.4609 58.4984 21.2891 57.9516 22.0078C57.4203 22.7109 56.7016 23.2656 55.7953 23.6719C54.9047 24.0781 53.9125 24.2812 52.8187 24.2812C51.8969 24.2812 51.0141 24.125 50.1703 23.8125C49.3266 23.5 48.5922 23.1172 47.9672 22.6641V19.4531C48.6547 19.9531 49.4125 20.375 50.2406 20.7188C51.0687 21.0625 51.9516 21.2344 52.8891 21.2344C53.5453 21.2344 54.1078 21.1094 54.5766 20.8594C55.0453 20.5938 55.2797 20.2031 55.2797 19.6875C55.2797 19.2812 55.0844 18.9531 54.6937 18.7031C54.3187 18.4375 53.9047 18.2188 53.4516 18.0469L51.0375 17.1094C49.8187 16.6406 48.9906 16.0312 48.5531 15.2812C48.1312 14.5156 47.9203 13.6719 47.9203 12.75C47.9203 11.7969 48.1781 10.9688 48.6937 10.2656C49.225 9.54688 49.9125 8.99219 50.7562 8.60156C51.6 8.19531 52.5141 7.99219 53.4984 7.99219ZM66.5109 8.29688V14.6953H73.8V8.29688H77.0344V24H73.8V17.625H66.5109V24H63.2531V8.29688H66.5109ZM89.7422 8.17969L97.0547 24H93.2344L92.0391 21.0703H85.8281L84.6328 24H80.8125L88.125 8.17969H89.7422ZM88.9453 13.5L86.9766 18.3047H90.9141L88.9453 13.5Z" fill="black"/>
</svg>
